<svg width="8" height="14" viewBox="0 0 8 14" fill="none" xmlns="http://www.w3.org/2000/svg">
<path d="M2.57398 12.0039C2.18254 12.0039 1.86523 11.6866 1.86523 11.2952L1.86523 10.2603C1.86523 9.86889 2.18254 9.55157 2.57398 9.55157L5.49855 9.55157C5.88998 9.55157 6.2073 9.86889 6.2073 10.2603L6.2073 11.2952C6.2073 11.6866 5.88998 12.0039 5.49855 12.0039L2.57398 12.0039Z" fill="#22AFFA"/>
<path d="M1.86523 8.01977C1.86523 8.41121 2.18254 8.72852 2.57398 8.72852L5.49855 8.72852C5.88998 8.72852 6.2073 8.41121 6.2073 8.01977L6.2073 6.98492C6.2073 6.5935 5.88998 6.27617 5.49855 6.27617L2.57398 6.27617C2.18254 6.27617 1.86523 6.5935 1.86523 6.98492L1.86523 8.01977Z" fill="#22AFFA"/>
<path fill-rule="evenodd" clip-rule="evenodd" d="M0.798828 12.017C0.798828 12.6041 1.27478 13.0801 1.86193 13.0801L6.21129 13.0801C6.79843 13.0801 7.2744 12.6041 7.2744 12.017L7.2744 2.98725C7.2744 2.40011 6.79843 1.92414 6.21129 1.92414L1.86194 1.92414C1.27478 1.92414 0.798828 2.40011 0.798828 2.98725L0.798828 12.017ZM1.33039 2.98725L1.33039 12.017C1.33039 12.3105 1.56836 12.5485 1.86193 12.5485L6.21129 12.5485C6.50485 12.5485 6.74285 12.3105 6.74285 12.017L6.74285 2.98725C6.74285 2.69369 6.50485 2.4557 6.21129 2.4557L1.86194 2.4557C1.56836 2.4557 1.33039 2.69369 1.33039 2.98725Z" fill="#22AFFA"/>
<path d="M2.76969 0.919614C2.6229 0.919614 2.50391 1.03861 2.50391 1.18539C2.50391 1.33219 2.6229 1.45117 2.76969 1.45117L5.30451 1.45117C5.4513 1.45117 5.57028 1.33219 5.57028 1.18539C5.57028 1.03861 5.4513 0.919614 5.30451 0.919614L2.76969 0.919614Z" fill="#22AFFA"/>
</svg>
