<svg width="41" height="40" viewBox="0 0 41 40" fill="none" xmlns="http://www.w3.org/2000/svg">
<path d="M0.5 20C0.5 8.95431 9.45431 0 20.5 0C31.5457 0 40.5 8.95431 40.5 20C40.5 31.0457 31.5457 40 20.5 40C9.45431 40 0.5 31.0457 0.5 20Z" fill="#45B26B"/>
<path d="M12.916 24.9993V15.8327C12.916 12.4993 13.7493 11.666 17.0827 11.666H22.916C26.2493 11.666 27.0827 12.4993 27.0827 15.8327V24.166C27.0827 24.2827 27.0827 24.3993 27.0743 24.516" stroke="#F7F7F7" stroke-width="1.5" stroke-linecap="round" stroke-linejoin="round"/>
<path d="M15.291 22.5H27.0827V25.4167C27.0827 27.025 25.7743 28.3333 24.166 28.3333H15.8327C14.2243 28.3333 12.916 27.025 12.916 25.4167V24.875C12.916 23.5667 13.9827 22.5 15.291 22.5Z" stroke="#F7F7F7" stroke-width="1.5" stroke-linecap="round" stroke-linejoin="round"/>
<path d="M16.666 15.834H23.3327" stroke="#F7F7F7" stroke-width="1.5" stroke-linecap="round" stroke-linejoin="round"/>
<path d="M16.666 18.75H20.8327" stroke="#F7F7F7" stroke-width="1.5" stroke-linecap="round" stroke-linejoin="round"/>
</svg>
