<svg width="17" height="14" viewBox="0 0 17 14" fill="none" xmlns="http://www.w3.org/2000/svg">
<path d="M14.9713 5.64156L14.065 2.28625C13.9213 1.75612 13.6072 1.28796 13.1712 0.953893C12.7352 0.619822 12.2015 0.438374 11.6522 0.4375H5.34781C4.79848 0.438218 4.26462 0.619558 3.8285 0.953579C3.39238 1.2876 3.0782 1.75577 2.93437 2.28594L2.02813 5.64156C1.71916 5.79797 1.45955 6.03689 1.27808 6.33183C1.0966 6.62677 1.00035 6.9662 1 7.3125V9.8125C1.00082 10.2552 1.15808 10.6833 1.444 11.0213C1.72991 11.3592 2.12608 11.5852 2.5625 11.6594V12C2.563 12.4142 2.72778 12.8114 3.02069 13.1043C3.31361 13.3972 3.71075 13.562 4.125 13.5625H4.75C5.16425 13.562 5.56139 13.3972 5.85431 13.1043C6.14722 12.8114 6.312 12.4142 6.3125 12V11.6875H10.6875V12C10.688 12.4142 10.8528 12.8114 11.1457 13.1043C11.4386 13.3972 11.8358 13.562 12.25 13.5625H12.875C13.2892 13.562 13.6864 13.3972 13.9793 13.1043C14.2722 12.8114 14.437 12.4142 14.4375 12V11.6594C14.8739 11.5852 15.2701 11.3592 15.556 11.0213C15.8419 10.6833 15.9992 10.2552 16 9.8125V7.3125C15.9996 6.96614 15.9032 6.62666 15.7217 6.33171C15.5401 6.03677 15.2803 5.79789 14.9713 5.64156ZM4.14125 2.61031C4.21311 2.34534 4.37021 2.1114 4.58828 1.94461C4.80635 1.77782 5.07327 1.68747 5.34781 1.6875H11.6522C11.9269 1.68756 12.194 1.77814 12.4121 1.94523C12.6302 2.11232 12.7872 2.34661 12.8588 2.61188L13.6216 5.4375H3.37844L4.14125 2.61031ZM5.0625 12C5.0625 12.0829 5.02958 12.1624 4.97097 12.221C4.91237 12.2796 4.83288 12.3125 4.75 12.3125H4.125C4.04212 12.3125 3.96263 12.2796 3.90403 12.221C3.84542 12.1624 3.8125 12.0829 3.8125 12V11.6875H5.0625V12ZM12.875 12.3125H12.25C12.1671 12.3125 12.0876 12.2796 12.029 12.221C11.9704 12.1624 11.9375 12.0829 11.9375 12V11.6875H13.1875V12C13.1875 12.0829 13.1546 12.1624 13.096 12.221C13.0374 12.2796 12.9579 12.3125 12.875 12.3125ZM14.75 9.8125C14.75 9.97826 14.6842 10.1372 14.5669 10.2544C14.4497 10.3717 14.2908 10.4375 14.125 10.4375H2.875C2.70924 10.4375 2.55027 10.3717 2.43306 10.2544C2.31585 10.1372 2.25 9.97826 2.25 9.8125V7.3125C2.25 7.14674 2.31585 6.98777 2.43306 6.87056C2.55027 6.75335 2.70924 6.6875 2.875 6.6875H14.125C14.2908 6.6875 14.4497 6.75335 14.5669 6.87056C14.6842 6.98777 14.75 7.14674 14.75 7.3125V9.8125Z" fill="#444F56" stroke="#444F56" stroke-width="0.2"/>
</svg>
