<svg width="12" height="12" viewBox="0 0 12 12" fill="none" xmlns="http://www.w3.org/2000/svg">
<path fill-rule="evenodd" clip-rule="evenodd" d="M6 12C2.68629 12 0 9.31371 0 6C0 2.68629 2.68629 0 6 0C9.31371 0 12 2.68629 12 6C12 9.31371 9.31371 12 6 12ZM6.6 5.4H7.8C8.13137 5.4 8.4 5.66863 8.4 6C8.4 6.33137 8.13137 6.6 7.8 6.6H6C5.66863 6.6 5.4 6.33137 5.4 6V3C5.4 2.66863 5.66863 2.4 6 2.4C6.33137 2.4 6.6 2.66863 6.6 3V5.4ZM10.8 6C10.8 8.65097 8.65097 10.8 6 10.8C3.34903 10.8 1.2 8.65097 1.2 6C1.2 3.34903 3.34903 1.2 6 1.2C8.65097 1.2 10.8 3.34903 10.8 6Z" fill="#708694"/>
</svg>
