<svg width="41" height="40" viewBox="0 0 41 40" fill="none" xmlns="http://www.w3.org/2000/svg">
<path d="M0.5 20C0.5 8.95431 9.45431 0 20.5 0C31.5457 0 40.5 8.95431 40.5 20C40.5 31.0457 31.5457 40 20.5 40C9.45431 40 0.5 31.0457 0.5 20Z" fill="#4BC9F0"/>
<path d="M25.792 22.3204C25.3995 21.5021 23.9953 20.3662 22.6387 19.2687C21.882 18.657 21.167 18.0787 20.7112 17.6229C20.597 17.5079 20.4262 17.4712 20.2753 17.5254C19.9945 17.6271 19.8212 17.7054 19.6845 17.7662C19.4762 17.8595 19.4062 17.8912 19.1253 17.9195C19.0012 17.932 18.8895 17.9987 18.8203 18.102C18.2312 18.9828 17.6212 18.9078 17.2137 18.7712C17.0837 18.7279 17.0603 18.672 17.0478 18.6187C16.9603 18.2529 17.3995 17.4012 17.9687 16.832C19.3228 15.477 20.0212 15.1378 21.4962 15.797C23.1695 16.5453 24.8462 17.1312 24.8628 17.137C25.082 17.2128 25.3178 17.0978 25.3937 16.8803C25.4687 16.6628 25.3545 16.4253 25.137 16.3495C25.1203 16.3437 23.477 15.7695 21.837 15.0353C19.9262 14.1812 18.8778 14.7437 17.3803 16.242C16.8103 16.812 16.0361 17.9653 16.2361 18.8112C16.3219 19.1712 16.5753 19.4379 16.9519 19.562C17.8961 19.8737 18.7578 19.5753 19.3994 18.7237C19.6644 18.6829 19.8086 18.6229 20.0253 18.5254C20.1036 18.4904 20.1953 18.4496 20.3169 18.4004C20.7936 18.8479 21.4369 19.3687 22.1144 19.9162C23.3394 20.907 24.7286 22.0304 25.0411 22.6804C25.1953 23.0012 25.0294 23.2104 24.9169 23.3062C24.7519 23.4479 24.5261 23.4929 24.4036 23.407C24.2686 23.3145 24.0928 23.3087 23.9536 23.392C23.8136 23.4753 23.7353 23.6328 23.7528 23.7945C23.7811 24.0595 23.5386 24.2112 23.4336 24.2637C23.1669 24.3987 22.8886 24.3754 22.7844 24.2787C22.6678 24.1704 22.5003 24.1387 22.3519 24.1937C22.2036 24.2495 22.1003 24.3862 22.0853 24.5445C22.0603 24.8178 21.8578 25.0803 21.5936 25.1828C21.4661 25.2312 21.2811 25.2603 21.1153 25.1087C21.0119 25.0153 20.8686 24.9795 20.7344 25.012C20.5986 25.0453 20.4894 25.1437 20.4419 25.2745C20.4261 25.3162 20.3903 25.4162 20.0003 25.4162C19.7228 25.4162 19.2236 25.2287 18.9794 25.067C18.6869 24.8745 16.8528 23.5062 15.2686 22.1795C15.0461 21.992 14.6611 21.5903 14.3211 21.2353C14.0194 20.9203 13.7436 20.6345 13.6019 20.5145C13.4244 20.3645 13.1619 20.387 13.0144 20.5637C12.8661 20.7395 12.8878 21.0028 13.0636 21.1512C13.1928 21.2603 13.4428 21.5245 13.7186 21.812C14.0903 22.2003 14.4744 22.602 14.7328 22.8187C16.2845 24.1178 18.1495 25.5203 18.5211 25.7645C18.8278 25.9662 19.4886 26.2495 20.0003 26.2495C20.4111 26.2495 20.727 26.1553 20.9461 25.9712C21.2394 26.0853 21.5728 26.0862 21.8936 25.9612C22.2728 25.8145 22.5844 25.5187 22.7611 25.1603C23.0894 25.2303 23.4653 25.1812 23.8069 25.0095C24.1411 24.8412 24.3828 24.5837 24.5028 24.2828C24.8344 24.3003 25.1761 24.1828 25.4586 23.9403C25.937 23.5312 26.0686 22.8946 25.792 22.3204Z" fill="white" stroke="white" stroke-width="0.6"/>
<path d="M18.3327 15.416H14.5827C14.3527 15.416 14.166 15.6027 14.166 15.8327C14.166 16.0627 14.3527 16.2494 14.5827 16.2494H18.3327C18.5627 16.2494 18.7494 16.0627 18.7494 15.8327C18.7494 15.6027 18.5627 15.416 18.3327 15.416Z" fill="white" stroke="white" stroke-width="0.6"/>
<path d="M27.0121 21.4349C26.8829 21.2441 26.6246 21.1916 26.4338 21.3216L25.2154 22.1399C25.0246 22.2682 24.9738 22.5274 25.1021 22.7182C25.1829 22.8374 25.3146 22.9024 25.4488 22.9024C25.528 22.9024 25.6088 22.8799 25.6805 22.8316L26.8988 22.0133C27.0896 21.8849 27.1404 21.6258 27.0121 21.4349Z" fill="white"/>
<path d="M14.87 14.6972C14.1558 14.0206 11.3 13.8014 10.4417 13.7506C10.3234 13.7447 10.2142 13.7839 10.1309 13.8631C10.0475 13.9414 10 14.0514 10 14.1664V21.6664C10 21.8964 10.1867 22.0831 10.4167 22.0831H12.9167C13.0967 22.0831 13.2567 21.9672 13.3125 21.7956C13.3733 21.6089 14.8092 17.2022 14.9983 15.0356C15.0092 14.9089 14.9625 14.7839 14.87 14.6972ZM12.6125 21.2497H10.8333V14.6131C12.1725 14.7189 13.6175 14.9489 14.1425 15.2039C13.9217 17.0289 12.9225 20.2714 12.6125 21.2497Z" fill="white" stroke="white" stroke-width="0.6"/>
<path d="M29.5835 14.584C26.3118 14.584 24.4968 15.4215 24.421 15.4565C24.3126 15.5073 24.2318 15.6015 24.1985 15.7157C24.1651 15.8298 24.1818 15.9523 24.2443 16.054C24.7593 16.8832 26.3718 21.4882 26.6818 22.6115C26.7318 22.7923 26.896 22.9173 27.0835 22.9173H29.5835C29.8135 22.9173 30.0001 22.7306 30.0001 22.5006V15.0006C30.0001 14.7698 29.8135 14.584 29.5835 14.584ZM29.1668 22.084H27.3951C27.0001 20.7973 25.8335 17.4423 25.1826 16.0557C25.8185 15.8398 27.1843 15.469 29.1668 15.4223V22.084Z" fill="white" stroke="white" stroke-width="0.6"/>
</svg>
