<svg width="40" height="40" viewBox="0 0 40 40" fill="none" xmlns="http://www.w3.org/2000/svg">
<path d="M0 20C0 8.95431 8.95431 0 20 0C31.0457 0 40 8.95431 40 20C40 31.0457 31.0457 40 20 40C8.95431 40 0 31.0457 0 20Z" fill="#3772FF"/>
<path d="M27.0293 18.4406H26.9839V17.349C26.9839 13.8426 24.0872 11 20.5138 11C16.9405 11 14.0438 13.8426 14.0438 17.349V18.4406H13.7713C12.7724 18.4406 12.0006 19.3094 12.0006 20.3119V23.0966C11.9754 24.0682 12.7578 24.8759 13.7479 24.9006C13.7557 24.9008 13.7635 24.901 13.7713 24.901H15.4513C15.6892 24.8901 15.8731 24.6918 15.8619 24.4584C15.8615 24.45 15.8608 24.4416 15.8599 24.4332V18.9752C15.8599 18.7079 15.701 18.4406 15.4513 18.4406H14.9518V17.349C14.9518 14.3347 17.442 11.8911 20.5138 11.8911C23.5856 11.8911 26.0758 14.3347 26.0758 17.349V18.4406H25.5764C25.3266 18.4406 25.1677 18.7079 25.1677 18.9752V24.4332C25.1424 24.6656 25.3139 24.8742 25.5507 24.8991C25.5592 24.9 25.5678 24.9006 25.5764 24.901H26.0985L26.0531 24.9678C25.3719 25.8562 24.3029 26.3766 23.1699 26.3713C22.9219 25.1778 21.7348 24.4076 20.5186 24.651C19.4786 24.8592 18.7287 25.753 18.7203 26.7946C18.7328 28.0162 19.7456 29.0001 20.9905 29C21.6068 28.9902 22.1943 28.742 22.6251 28.3094C22.9157 28.0173 23.1062 27.6435 23.1699 27.2401C24.5888 27.2454 25.9268 26.593 26.7795 25.4802L27.2109 24.8564C28.187 24.7896 28.8 24.1881 28.8 23.3193V20.5346C28.8 19.5768 28.0736 18.4406 27.0293 18.4406ZM14.9518 24.0099H13.7713C13.2825 23.9983 12.8959 23.6 12.9078 23.1203C12.908 23.1124 12.9083 23.1045 12.9087 23.0966V20.3119C12.9087 19.7995 13.2719 19.3317 13.7713 19.3317H14.9518V24.0099ZM21.9668 27.6857C21.7152 27.9534 21.3617 28.1067 20.9906 28.109C20.252 28.0975 19.6526 27.5191 19.6285 26.7946C19.6282 26.0687 20.2276 25.48 20.9673 25.4797C21.7071 25.4794 22.307 26.0676 22.3073 26.7935C22.3073 26.7939 22.3073 26.7943 22.3073 26.7946C22.3262 27.1254 22.2026 27.4487 21.9668 27.6857ZM27.892 23.3193C27.892 23.9208 27.3017 24.0099 27.0293 24.0099H26.0758V19.3317H27.0293C27.5287 19.3317 27.892 20.0223 27.892 20.5347V23.3193Z" fill="white" stroke="white" stroke-width="0.6"/>
</svg>
