<svg width="40" height="40" viewBox="0 0 40 40" fill="none" xmlns="http://www.w3.org/2000/svg">
<path d="M0 20C0 8.95431 8.95431 0 20 0C31.0457 0 40 8.95431 40 20C40 31.0457 31.0457 40 20 40C8.95431 40 0 31.0457 0 20Z" fill="#F9FAFB"/>
<path d="M21.8854 22.8652H17.7188" stroke="#1DAB87" stroke-width="1.5" stroke-miterlimit="10" stroke-linecap="round" stroke-linejoin="round"/>
<path d="M19.8008 20.832V24.9987" stroke="#1DAB87" stroke-width="1.5" stroke-miterlimit="10" stroke-linecap="round" stroke-linejoin="round"/>
<path d="M20.5495 12.0978L20.5245 12.1561L18.1078 17.7645H15.7328C15.1661 17.7645 14.6245 17.8811 14.1328 18.0895L15.5911 14.6061L15.6245 14.5228L15.6828 14.3895C15.6995 14.3395 15.7161 14.2895 15.7411 14.2478C16.8328 11.7228 18.0661 11.1478 20.5495 12.0978Z" stroke="#1DAB87" stroke-width="1.5" stroke-linecap="round" stroke-linejoin="round"/>
<path d="M25.0408 17.931C24.6658 17.8143 24.2658 17.7643 23.8658 17.7643H18.1074L20.5241 12.156L20.5491 12.0977C20.6741 12.1393 20.7908 12.1977 20.9158 12.2477L22.7574 13.0227C23.7824 13.4477 24.4991 13.8893 24.9324 14.4227C25.0158 14.5227 25.0824 14.6143 25.1408 14.7227C25.2158 14.8393 25.2741 14.956 25.3074 15.081C25.3408 15.156 25.3658 15.231 25.3824 15.2977C25.6074 15.9977 25.4741 16.856 25.0408 17.931Z" stroke="#1DAB87" stroke-width="1.5" stroke-linecap="round" stroke-linejoin="round"/>
<path d="M27.9341 21.8323V23.4573C27.9341 23.624 27.9258 23.7906 27.9174 23.9573C27.7591 26.8656 26.1341 28.3323 23.0508 28.3323H16.5508C16.3508 28.3323 16.1508 28.3156 15.9591 28.2906C13.3091 28.1156 11.8924 26.699 11.7174 24.049C11.6924 23.8573 11.6758 23.6573 11.6758 23.4573V21.8323C11.6758 20.1573 12.6924 18.7156 14.1424 18.0906C14.6424 17.8823 15.1758 17.7656 15.7424 17.7656H23.8758C24.2841 17.7656 24.6841 17.824 25.0508 17.9323C26.7091 18.4406 27.9341 19.9906 27.9341 21.8323Z" stroke="#1DAB87" stroke-width="1.5" stroke-linecap="round" stroke-linejoin="round"/>
<path d="M15.591 14.6074L14.1327 18.0908C12.6827 18.7158 11.666 20.1574 11.666 21.8324V19.3908C11.666 17.0241 13.3493 15.0491 15.591 14.6074Z" stroke="#1DAB87" stroke-width="1.5" stroke-linecap="round" stroke-linejoin="round"/>
<path d="M27.9322 19.3904V21.832C27.9322 19.9987 26.7155 18.4404 25.0488 17.9404C25.4822 16.857 25.6072 16.007 25.3988 15.2987C25.3822 15.2237 25.3572 15.1487 25.3238 15.082C26.8738 15.882 27.9322 17.5237 27.9322 19.3904Z" stroke="#1DAB87" stroke-width="1.5" stroke-linecap="round" stroke-linejoin="round"/>
</svg>
