<svg width="20" height="20" viewBox="0 0 20 20" fill="none" xmlns="http://www.w3.org/2000/svg">
<rect y="20" width="20" height="20" rx="10" transform="rotate(-90 0 20)" fill="url(#paint0_linear_7135_96)"/>
<g clip-path="url(#clip0_7135_96)">
<path d="M9.99877 5.47343L5.47343 9.99877L9.99877 14.5241L14.5241 9.99877L9.99877 5.47343ZM10.3758 4.3417L15.6558 9.6217C15.7558 9.72171 15.812 9.85734 15.812 9.99877C15.812 10.1402 15.7558 10.2758 15.6558 10.3758L10.3758 15.6558C10.2758 15.7558 10.1402 15.812 9.99877 15.812C9.85734 15.812 9.72171 15.7558 9.6217 15.6558L4.3417 10.3758C4.24172 10.2758 4.18555 10.1402 4.18555 9.99877C4.18555 9.85734 4.24172 9.72171 4.3417 9.6217L9.6217 4.3417C9.72171 4.24172 9.85734 4.18555 9.99877 4.18555C10.1402 4.18555 10.2758 4.24172 10.3758 4.3417ZM10.5321 8.9321V7.59877L12.3988 9.46543L10.5321 11.3321V9.99877H8.9321V11.5988H7.86543V9.46543C7.86543 9.32398 7.92162 9.18833 8.02164 9.08831C8.12166 8.98829 8.25732 8.9321 8.39877 8.9321H10.5321Z" fill="white"/>
</g>
<defs>
<linearGradient id="paint0_linear_7135_96" x1="10" y1="20" x2="10" y2="40" gradientUnits="userSpaceOnUse">
<stop stop-color="#7DCD00"/>
<stop offset="1" stop-color="#5FB200"/>
</linearGradient>
<clipPath id="clip0_7135_96">
<rect width="12.8" height="12.8" fill="white" transform="translate(3.59961 3.59961)"/>
</clipPath>
</defs>
</svg>
