<svg width="19" height="19" viewBox="0 0 19 19" fill="none" xmlns="http://www.w3.org/2000/svg">
<path d="M13.8119 10.3742C13.4903 10.6881 13.3066 11.1398 13.3525 11.6222C13.4214 12.4491 14.1794 13.0539 15.0063 13.0539H16.4609V13.965C16.4609 15.5498 15.167 16.8438 13.5822 16.8438H4.79281C3.20797 16.8438 1.91406 15.5498 1.91406 13.965V8.81235C1.91406 7.22751 3.20797 5.93359 4.79281 5.93359H13.5822C15.167 5.93359 16.4609 7.22751 16.4609 8.81235V9.91485H14.9144C14.4856 9.91485 14.0952 10.0833 13.8119 10.3742Z" fill="#444F56" stroke="#444F56" stroke-width="1.5" stroke-linecap="round" stroke-linejoin="round"/>
<path d="M1.91406 9.50165V6.00278C1.91406 5.09169 2.47297 4.28009 3.32281 3.95853L9.40188 1.66165C10.3513 1.30181 11.3695 2.00621 11.3695 3.02449V5.93386" stroke="#444F56" stroke-width="1.5" stroke-linecap="round" stroke-linejoin="round"/>
<path d="M17.2707 10.695V12.2722C17.2707 12.6933 16.9339 13.0378 16.5051 13.0531H15.0045C14.1776 13.0531 13.4196 12.4483 13.3507 11.6214C13.3048 11.139 13.4885 10.6873 13.8101 10.3734C14.0934 10.0825 14.4839 9.91406 14.9126 9.91406H16.5051C16.9339 9.92937 17.2707 10.2739 17.2707 10.695Z" fill="white" stroke="#444F56" stroke-width="1.5" stroke-linecap="round" stroke-linejoin="round"/>
<path d="M5.35938 9.1875H10.7188" stroke="white" stroke-width="1.5" stroke-linecap="round" stroke-linejoin="round"/>
</svg>
