<svg width="19" height="20" viewBox="0 0 19 20" fill="none" xmlns="http://www.w3.org/2000/svg">
<path d="M14.1244 11.1867C13.8028 11.5006 13.6191 11.9523 13.665 12.4347C13.7339 13.2616 14.4919 13.8664 15.3188 13.8664H16.7734V14.7775C16.7734 16.3623 15.4795 17.6562 13.8947 17.6562H5.10531C3.52047 17.6562 2.22656 16.3623 2.22656 14.7775V9.62485C2.22656 8.04001 3.52047 6.74609 5.10531 6.74609H13.8947C15.4795 6.74609 16.7734 8.04001 16.7734 9.62485V10.7274H15.2269C14.7981 10.7274 14.4077 10.8958 14.1244 11.1867Z" stroke="#444F56" stroke-width="1.5" stroke-linecap="round" stroke-linejoin="round"/>
<path d="M2.22656 10.3141V6.81528C2.22656 5.90419 2.78547 5.09259 3.63531 4.77103L9.71437 2.47415C10.6637 2.11431 11.682 2.81871 11.682 3.83699V6.74636" stroke="#444F56" stroke-width="1.5" stroke-linecap="round" stroke-linejoin="round"/>
<path d="M17.5832 11.5075V13.0847C17.5832 13.5058 17.2464 13.8503 16.8176 13.8656H15.317C14.4901 13.8656 13.7321 13.2608 13.6632 12.4339C13.6173 11.9515 13.801 11.4998 14.1226 11.1859C14.4059 10.895 14.7964 10.7266 15.2251 10.7266H16.8176C17.2464 10.7419 17.5832 11.0864 17.5832 11.5075Z" stroke="#444F56" stroke-width="1.5" stroke-linecap="round" stroke-linejoin="round"/>
<path d="M5.67188 10H11.0312" stroke="#444F56" stroke-width="1.5" stroke-linecap="round" stroke-linejoin="round"/>
</svg>
