<svg width="20" height="20" viewBox="0 0 20 20" fill="none" xmlns="http://www.w3.org/2000/svg">
<path d="M16.944 6.17969H12.7773" stroke="#444F56" stroke-width="1.5" stroke-miterlimit="10" stroke-linecap="round" stroke-linejoin="round"/>
<path d="M5.83247 6.17969H3.05469" stroke="#444F56" stroke-width="1.5" stroke-miterlimit="10" stroke-linecap="round" stroke-linejoin="round"/>
<path d="M8.61024 8.61111C9.9526 8.61111 11.0408 7.52291 11.0408 6.18056C11.0408 4.8382 9.9526 3.75 8.61024 3.75C7.26788 3.75 6.17969 4.8382 6.17969 6.18056C6.17969 7.52291 7.26788 8.61111 8.61024 8.61111Z" stroke="#444F56" stroke-width="1.5" stroke-miterlimit="10" stroke-linecap="round" stroke-linejoin="round"/>
<path d="M16.9438 13.8184H14.166" stroke="#444F56" stroke-width="1.5" stroke-miterlimit="10" stroke-linecap="round" stroke-linejoin="round"/>
<path d="M7.22135 13.8184H3.05469" stroke="#444F56" stroke-width="1.5" stroke-miterlimit="10" stroke-linecap="round" stroke-linejoin="round"/>
<path d="M11.3876 16.2498C12.7299 16.2498 13.8181 15.1616 13.8181 13.8192C13.8181 12.4769 12.7299 11.3887 11.3876 11.3887C10.0452 11.3887 8.95703 12.4769 8.95703 13.8192C8.95703 15.1616 10.0452 16.2498 11.3876 16.2498Z" stroke="#444F56" stroke-width="1.5" stroke-miterlimit="10" stroke-linecap="round" stroke-linejoin="round"/>
</svg>
