<svg width="20" height="21" viewBox="0 0 20 21" fill="none" xmlns="http://www.w3.org/2000/svg">
<rect x="3" y="2" width="11" height="17" fill="#444F56"/>
<path d="M14.5827 19.9062H2.91602C2.57435 19.9062 2.29102 19.6087 2.29102 19.25V4.375C2.29102 2.415 3.54935 1.09375 5.41602 1.09375H12.0827C13.9493 1.09375 15.2077 2.415 15.2077 4.375V19.25C15.2077 19.6087 14.9243 19.9062 14.5827 19.9062ZM3.54102 18.5938H13.9577V4.375C13.9577 3.14125 13.2577 2.40625 12.0827 2.40625H5.41602C4.24102 2.40625 3.54102 3.14125 3.54102 4.375V18.5938Z" fill="#444F56" stroke="#444F56" stroke-width="0.3"/>
<path d="M15.8327 19.9062H1.66602C1.32435 19.9062 1.04102 19.6087 1.04102 19.25C1.04102 18.8913 1.32435 18.5938 1.66602 18.5938H15.8327C16.1743 18.5938 16.4577 18.8913 16.4577 19.25C16.4577 19.6087 16.1743 19.9062 15.8327 19.9062Z" fill="#444F56" stroke="#444F56" stroke-width="0.3"/>
<path d="M11.5179 8.72553C11.6229 8.59462 11.5297 8.40041 11.3619 8.40041H9.84999C9.69422 8.40041 9.59824 8.2302 9.67885 8.09691L11.4284 5.20389C11.5091 5.0706 11.4131 4.90039 11.2573 4.90039H9.07158C8.99444 4.90039 8.92418 4.94476 8.89101 5.0144L6.5815 9.86443C6.5183 9.99715 6.61507 10.1504 6.76207 10.1504H8.11621C8.25781 10.1504 8.35456 10.2935 8.30182 10.4249L6.94795 13.7981C6.86226 14.0116 7.14564 14.1772 7.28958 13.9977L11.5179 8.72553Z" fill="white"/>
<path d="M14.584 14.6644C14.2423 14.6644 13.959 14.3757 13.959 14.0082C13.959 13.6494 14.234 13.3519 14.584 13.3519L17.709 13.3432V9.15192L16.384 8.46066C16.0757 8.29441 15.9507 7.90067 16.1007 7.57692C16.259 7.25317 16.634 7.12192 16.9423 7.27942L18.609 8.15442C18.8173 8.26817 18.9506 8.49567 18.9506 8.74067V13.9907C18.9506 14.3494 18.6756 14.6469 18.3256 14.6469L14.584 14.6644Z" fill="#444F56" stroke="#444F56" stroke-width="0.3"/>
</svg>
