<svg width="21" height="22" viewBox="0 0 21 22" fill="none" xmlns="http://www.w3.org/2000/svg">
<path d="M15.0202 20.6387H3.35352C3.01185 20.6387 2.72852 20.3412 2.72852 19.9824V5.10742C2.72852 3.14742 3.98685 1.82617 5.85352 1.82617H12.5202C14.3868 1.82617 15.6452 3.14742 15.6452 5.10742V19.9824C15.6452 20.3412 15.3618 20.6387 15.0202 20.6387ZM3.97852 19.3262H14.3952V5.10742C14.3952 3.87367 13.6952 3.13867 12.5202 3.13867H5.85352C4.67852 3.13867 3.97852 3.87367 3.97852 5.10742V19.3262Z" fill="#444F56" stroke="#708694" stroke-width="0.3"/>
<path d="M16.2702 20.6387H2.10352C1.76185 20.6387 1.47852 20.3412 1.47852 19.9824C1.47852 19.6237 1.76185 19.3262 2.10352 19.3262H16.2702C16.6118 19.3262 16.8952 19.6237 16.8952 19.9824C16.8952 20.3412 16.6118 20.6387 16.2702 20.6387Z" fill="#444F56" stroke="#708694" stroke-width="0.3"/>
<path d="M11.9554 9.45796C12.0604 9.32704 11.9672 9.13283 11.7994 9.13283H10.2875C10.1317 9.13283 10.0357 8.96262 10.1164 8.82933L11.8659 5.93631C11.9466 5.80302 11.8506 5.63281 11.6948 5.63281H9.50908C9.43194 5.63281 9.36168 5.67718 9.32851 5.74683L7.019 10.5968C6.9558 10.7296 7.05257 10.8828 7.19957 10.8828H8.55371C8.69531 10.8828 8.79206 11.0259 8.73932 11.1573L7.38545 14.5305C7.29976 14.744 7.58314 14.9096 7.72708 14.7301L11.9554 9.45796Z" fill="#444F56"/>
<path d="M15.0215 15.3968C14.6798 15.3968 14.3965 15.1081 14.3965 14.7406C14.3965 14.3818 14.6715 14.0843 15.0215 14.0843L18.1465 14.0756V9.88434L16.8215 9.19309C16.5132 9.02684 16.3882 8.63309 16.5382 8.30934C16.6965 7.98559 17.0715 7.85434 17.3798 8.01184L19.0465 8.88684C19.2548 9.00059 19.3881 9.22809 19.3881 9.47309V14.7231C19.3881 15.0818 19.1131 15.3793 18.7631 15.3793L15.0215 15.3968Z" fill="#444F56" stroke="#708694" stroke-width="0.3"/>
</svg>
