<svg width="18" height="20" viewBox="0 0 18 20" fill="none" xmlns="http://www.w3.org/2000/svg">
<path fill-rule="evenodd" clip-rule="evenodd" d="M8.29791 0.844747L0.66155 6.78414C0.45487 6.94489 0.333984 7.19206 0.333984 7.4539V16.7872C0.333984 18.193 1.47362 19.3327 2.87944 19.3327H14.7582C16.164 19.3327 17.3037 18.193 17.3037 16.7872V7.4539C17.3037 7.19206 17.1828 6.94489 16.9761 6.78414L9.33975 0.844747C9.03336 0.606438 8.60431 0.606438 8.29791 0.844747ZM10.5158 10.8478H7.12186V16.7872C7.12186 17.2558 6.74198 17.6357 6.27338 17.6357C5.80477 17.6357 5.42489 17.2558 5.42489 16.7872V9.99935C5.42489 9.53074 5.80477 9.15086 6.27338 9.15086H11.3643C11.8329 9.15086 12.2128 9.53074 12.2128 9.99935V16.7872C12.2128 17.2558 11.8329 17.6357 11.3643 17.6357C10.8957 17.6357 10.5158 17.2558 10.5158 16.7872V10.8478Z" fill="#444F56"/>
</svg>
