<svg width="20" height="22" viewBox="0 0 20 22" fill="none" xmlns="http://www.w3.org/2000/svg">
<path fill-rule="evenodd" clip-rule="evenodd" d="M9.69658 2.35939C9.76826 2.30364 9.86863 2.30364 9.9403 2.35939L17.5767 8.29878C17.625 8.33639 17.6533 8.39421 17.6533 8.45546V17.7888C17.6533 18.8356 16.8047 19.6842 15.7578 19.6842H3.87905C2.83222 19.6842 1.98359 18.8356 1.98359 17.7888V8.45546C1.98359 8.39421 2.01187 8.33639 2.06022 8.29878L9.69658 2.35939ZM10.7384 1.33323C10.1973 0.912361 9.43958 0.912361 8.89846 1.33323L1.2621 7.27262C0.897087 7.55652 0.683594 7.99304 0.683594 8.45546V17.7888C0.683594 19.5536 2.11425 20.9842 3.87905 20.9842H15.7578C17.5226 20.9842 18.9533 19.5536 18.9533 17.7888V8.45546C18.9533 7.99304 18.7398 7.55652 18.3748 7.27262L10.7384 1.33323ZM11.5154 11.8494H8.12147V17.7888C8.12147 18.2574 7.74159 18.6373 7.27299 18.6373C6.80438 18.6373 6.4245 18.2574 6.4245 17.7888V11.0009C6.4245 10.5323 6.80438 10.1524 7.27299 10.1524H12.3639C12.8325 10.1524 13.2124 10.5323 13.2124 11.0009V17.7888C13.2124 18.2574 12.8325 18.6373 12.3639 18.6373C11.8953 18.6373 11.5154 18.2574 11.5154 17.7888V11.8494Z" fill="#444F56"/>
<path d="M9.9403 2.35939L10.0324 2.24099L10.0324 2.24099L9.9403 2.35939ZM9.69658 2.35939L9.78868 2.47779L9.78868 2.47779L9.69658 2.35939ZM17.5767 8.29878L17.4846 8.41719L17.4846 8.41719L17.5767 8.29878ZM2.06022 8.29878L2.15231 8.41719L2.15231 8.41719L2.06022 8.29878ZM8.89846 1.33323L8.80637 1.21483L8.80637 1.21483L8.89846 1.33323ZM10.7384 1.33323L10.8305 1.21483L10.8305 1.21483L10.7384 1.33323ZM1.2621 7.27262L1.35419 7.39103L1.35419 7.39103L1.2621 7.27262ZM18.3748 7.27262L18.2827 7.39103L18.2827 7.39103L18.3748 7.27262ZM8.12147 11.8494V11.6994H7.97147V11.8494H8.12147ZM11.5154 11.8494H11.6654V11.6994H11.5154V11.8494ZM10.0324 2.24099C9.90655 2.14311 9.73033 2.14311 9.60449 2.24099L9.78868 2.47779C9.80618 2.46417 9.8307 2.46417 9.84821 2.47779L10.0324 2.24099ZM17.6688 8.18038L10.0324 2.24099L9.84821 2.47779L17.4846 8.41719L17.6688 8.18038ZM17.8033 8.45546C17.8033 8.34792 17.7536 8.2464 17.6688 8.18038L17.4846 8.41719C17.4964 8.42637 17.5033 8.4405 17.5033 8.45546H17.8033ZM17.8033 17.7888V8.45546H17.5033V17.7888H17.8033ZM15.7578 19.8342C16.8875 19.8342 17.8033 18.9185 17.8033 17.7888H17.5033C17.5033 18.7528 16.7218 19.5342 15.7578 19.5342V19.8342ZM3.87905 19.8342H15.7578V19.5342H3.87905V19.8342ZM1.83359 17.7888C1.83359 18.9185 2.74937 19.8342 3.87905 19.8342V19.5342C2.91506 19.5342 2.13359 18.7528 2.13359 17.7888H1.83359ZM1.83359 8.45546V17.7888H2.13359V8.45546H1.83359ZM1.96813 8.18038C1.88324 8.2464 1.83359 8.34792 1.83359 8.45546H2.13359C2.13359 8.4405 2.1405 8.42637 2.15231 8.41719L1.96813 8.18038ZM9.60449 2.24099L1.96813 8.18038L2.15231 8.41719L9.78868 2.47779L9.60449 2.24099ZM8.99055 1.45163C9.4775 1.07289 10.1594 1.07289 10.6463 1.45163L10.8305 1.21483C10.2352 0.751828 9.40165 0.751828 8.80637 1.21483L8.99055 1.45163ZM1.35419 7.39103L8.99055 1.45163L8.80637 1.21483L1.17001 7.15422L1.35419 7.39103ZM0.833594 8.45546C0.833594 8.03933 1.02572 7.64651 1.35419 7.39103L1.17001 7.15422C0.768458 7.46654 0.533594 7.94675 0.533594 8.45546H0.833594ZM0.833594 17.7888V8.45546H0.533594V17.7888H0.833594ZM3.87905 20.8342C2.19709 20.8342 0.833594 19.4708 0.833594 17.7888H0.533594C0.533594 19.6364 2.0314 21.1342 3.87905 21.1342V20.8342ZM15.7578 20.8342H3.87905V21.1342H15.7578V20.8342ZM18.8033 17.7888C18.8033 19.4708 17.4398 20.8342 15.7578 20.8342V21.1342C17.6055 21.1342 19.1033 19.6364 19.1033 17.7888H18.8033ZM18.8033 8.45546V17.7888H19.1033V8.45546H18.8033ZM18.2827 7.39103C18.6112 7.64651 18.8033 8.03933 18.8033 8.45546H19.1033C19.1033 7.94675 18.8684 7.46654 18.4669 7.15422L18.2827 7.39103ZM10.6463 1.45163L18.2827 7.39103L18.4669 7.15422L10.8305 1.21483L10.6463 1.45163ZM8.12147 11.9994H11.5154V11.6994H8.12147V11.9994ZM8.27147 17.7888V11.8494H7.97147V17.7888H8.27147ZM7.27299 18.7873C7.82444 18.7873 8.27147 18.3402 8.27147 17.7888H7.97147C7.97147 18.1746 7.65875 18.4873 7.27299 18.4873V18.7873ZM6.2745 17.7888C6.2745 18.3402 6.72154 18.7873 7.27299 18.7873V18.4873C6.88723 18.4873 6.5745 18.1746 6.5745 17.7888H6.2745ZM6.2745 11.0009V17.7888H6.5745V11.0009H6.2745ZM7.27299 10.0024C6.72154 10.0024 6.2745 10.4495 6.2745 11.0009H6.5745C6.5745 10.6151 6.88723 10.3024 7.27299 10.3024V10.0024ZM12.3639 10.0024H7.27299V10.3024H12.3639V10.0024ZM13.3624 11.0009C13.3624 10.4495 12.9153 10.0024 12.3639 10.0024V10.3024C12.7497 10.3024 13.0624 10.6151 13.0624 11.0009H13.3624ZM13.3624 17.7888V11.0009H13.0624V17.7888H13.3624ZM12.3639 18.7873C12.9153 18.7873 13.3624 18.3402 13.3624 17.7888H13.0624C13.0624 18.1746 12.7497 18.4873 12.3639 18.4873V18.7873ZM11.3654 17.7888C11.3654 18.3402 11.8124 18.7873 12.3639 18.7873V18.4873C11.9781 18.4873 11.6654 18.1746 11.6654 17.7888H11.3654ZM11.3654 11.8494V17.7888H11.6654V11.8494H11.3654Z" fill="black"/>
</svg>
