<svg width="14" height="18" viewBox="0 0 14 18" fill="none" xmlns="http://www.w3.org/2000/svg">
<path d="M6.78361 15.8594C6.84233 15.9137 6.91935 15.9438 6.99929 15.9438C7.07924 15.9438 7.15625 15.9136 7.21497 15.8594C9.2456 13.9094 13.3684 9.38997 13.3389 6.59057C13.3406 5.75697 13.1778 4.93123 12.86 4.16061C12.5421 3.38999 12.0754 2.68962 11.4865 2.09959C10.8977 1.50956 10.1983 1.04146 9.42827 0.722069C8.65828 0.402682 7.83287 0.238282 6.99927 0.238281C6.16567 0.23828 5.34025 0.402678 4.57027 0.722063C3.80028 1.04145 3.10084 1.50955 2.51198 2.09958C1.92312 2.68961 1.45641 3.38998 1.13855 4.16059C0.82069 4.93121 0.65793 5.75695 0.659584 6.59055C0.627459 9.38515 4.75481 13.9146 6.78361 15.8594ZM4.29833 6.59055C4.44187 3.01034 9.55721 3.01135 9.70021 6.59057C9.70021 7.3069 9.41564 7.99389 8.90912 8.50042C8.40259 9.00694 7.7156 9.2915 6.99926 9.2915C6.28293 9.29149 5.59594 9.00693 5.08941 8.5004C4.58289 7.99388 4.29833 7.30688 4.29833 6.59055ZM13.9048 15.6312C13.8809 18.4574 0.117544 18.4574 0.09375 15.6312C0.09375 14.6183 1.87875 14.0087 3.8982 13.718C4.04035 13.8898 4.2438 14.1099 4.39524 14.2807C1.89125 14.5808 0.718965 15.231 0.718965 15.6312C0.718965 16.2439 3.16669 17.1317 6.99928 17.1317C10.8319 17.1317 13.2796 16.2439 13.2796 15.6312C13.2796 15.231 12.1073 14.5808 9.60332 14.2807L9.82214 14.0369C9.91593 13.9306 10.0097 13.8243 10.1004 13.718C12.1198 14.0087 13.9048 14.6183 13.9048 15.6312Z" fill="#59AD00"/>
</svg>
