<svg width="114" height="28" viewBox="0 0 114 28" fill="none" xmlns="http://www.w3.org/2000/svg">
<g filter="url(#filter0_d_5152_387)">
<path d="M70.4128 14.5709C68.2007 14.2123 66.6281 12.5008 66.4726 10.3818C66.3862 9.24078 66.5763 8.16499 67.2675 7.20329C68.0798 6.0623 69.2549 5.4429 70.7066 5.3614C72.0545 5.2962 73.4197 5.2962 74.7677 5.3614C77.1353 5.4918 78.898 7.25219 79.0017 9.56678C79.0708 11.0827 78.6387 12.4193 77.4463 13.4788C76.565 14.2612 75.4935 14.6198 74.3011 14.6524C73.7826 14.6687 71.1559 14.7013 70.4128 14.5709ZM74.664 12.9898C76.1502 12.8268 77.1698 11.7184 77.2735 10.1862C77.4118 8.32799 76.0811 6.95879 74.111 6.95879C73.1605 6.95879 72.21 6.95879 71.2596 6.95879C70.7238 6.95879 70.2054 7.05659 69.7388 7.31739C68.5118 8.00199 68.0971 9.07778 68.218 10.3655C68.3563 11.7836 69.3932 12.8431 70.8102 12.9898C71.4324 13.055 74.0246 13.055 74.664 12.9898Z" fill="white"/>
<path d="M83.8225 8.00465V14.6387H82.1289C82.1289 14.5409 82.1289 14.4594 82.1289 14.3779C82.1289 11.7536 82.1289 9.11305 82.1289 6.48876C82.1289 6.21166 82.1808 5.98346 82.4054 5.78786C82.7165 5.51076 83.1831 5.51076 83.5805 5.80416C84.9112 6.76586 86.2246 7.74385 87.5553 8.70555C89.1625 9.87914 90.7696 11.0527 92.4287 12.2589V5.60856H94.1222C94.1222 5.72266 94.1222 5.82046 94.1222 5.91826C94.1222 8.52625 94.1222 11.1505 94.1222 13.7585C94.1222 14.1334 94.0358 14.4431 93.6556 14.6224C93.2754 14.7854 92.9644 14.6876 92.636 14.4594C89.8364 12.4056 87.0196 10.3518 84.2027 8.29805C84.099 8.20025 83.978 8.13505 83.8225 8.00465Z" fill="white"/>
<path d="M55.6196 12.452C55.9653 11.8978 56.2936 11.3762 56.622 10.8383C57.6761 9.14311 58.7303 7.44792 59.7845 5.75273C59.8709 5.60603 59.9746 5.54083 60.1474 5.55713C60.7004 5.57343 61.2361 5.55713 61.841 5.55713C61.4608 6.16023 61.1151 6.71443 60.7522 7.26862C59.3006 9.55061 57.849 11.8163 56.3973 14.0983C56.0862 14.5873 55.706 14.7992 55.2913 14.6199C55.0494 14.5221 54.842 14.3102 54.6864 14.082C54.0989 13.1855 53.5286 12.289 52.9583 11.3762C51.7832 9.53431 50.608 7.67612 49.4329 5.83423C49.381 5.76903 49.3465 5.68753 49.2773 5.55713H49.8476C50.2451 5.55713 50.6599 5.57343 51.0573 5.55713C51.2647 5.54083 51.3684 5.62233 51.4721 5.78533C52.7509 7.85542 54.047 9.92551 55.3431 11.9793C55.395 12.1423 55.4987 12.289 55.6196 12.452Z" fill="white"/>
<path d="M37.5259 13.1197H47.3072V14.6845C47.2035 14.6845 47.0998 14.7008 47.0134 14.7008C43.6608 14.7008 40.3255 14.7008 36.9729 14.7008C36.1952 14.7008 35.8496 14.3748 35.8496 13.6413C35.8496 11.3104 35.8496 8.96325 35.8496 6.63236C35.8496 5.93147 36.1952 5.60547 36.9383 5.60547C40.2909 5.60547 43.6435 5.60547 47.0134 5.60547H47.3072V7.17026H37.5259V13.1197Z" fill="white"/>
<path d="M38.7707 10.8572C38.7362 10.0585 39.4447 9.2924 40.3088 9.2924C42.4863 9.2761 44.6464 9.2924 46.8239 9.2924C46.8412 9.2924 46.8758 9.3087 46.9103 9.325V10.8735H38.7707V10.8572Z" fill="white"/>
<path d="M99.4634 13.1197H109.245V14.6845C109.141 14.6845 109.037 14.7008 108.951 14.7008C105.598 14.7008 102.263 14.7008 98.9104 14.7008C98.1327 14.7008 97.7871 14.3748 97.7871 13.6413C97.7871 11.3104 97.7871 8.96325 97.7871 6.63236C97.7871 5.93147 98.1327 5.60547 98.8758 5.60547C102.228 5.60547 105.581 5.60547 108.951 5.60547H109.245V7.17026H99.4807V13.1197H99.4634Z" fill="white"/>
<path d="M100.706 10.8572C100.672 10.0585 101.38 9.2924 102.244 9.2924C104.422 9.2761 106.582 9.2924 108.759 9.2924C108.777 9.2924 108.811 9.3087 108.846 9.325V10.8735H100.706V10.8572Z" fill="white"/>
<path d="M31.2702 0C31.2702 1.74409 29.7148 4.53138 25.9302 4.53138H14.4898C12.9172 4.56398 11.5002 5.18337 10.4633 6.16137C9.42638 7.15566 8.80425 8.50856 8.80425 10.0082C8.80425 11.5077 9.42638 12.8606 10.4633 13.8549C11.3965 14.7514 12.6407 15.3382 14.006 15.4523C14.4726 15.4849 14.9046 15.4686 15.0601 15.4686H21.6789C21.6789 17.1475 20.2273 19.8207 16.7019 19.9837C16.7019 19.9837 14.6454 20 14.5071 20C14.5071 20 13.2283 19.9348 12.6407 19.8207C10.4633 19.4458 8.52774 18.4515 7.04154 17.0171C5.17514 15.2078 4 12.7302 4 10.0082C4 7.28606 5.17514 4.80848 7.05882 2.99918C8.95978 1.18989 11.552 0.0651997 14.4726 0.0162999H14.5071H31.2702V0Z" fill="white"/>
<path d="M27.1921 7.72656H17.6528C13.8681 7.72656 12.3301 10.5138 12.3301 12.2579H21.8694C25.6368 12.2579 27.1921 9.48695 27.1921 7.72656Z" fill="white"/>
</g>
<defs>
<filter id="filter0_d_5152_387" x="0" y="0" width="113.244" height="28" filterUnits="userSpaceOnUse" color-interpolation-filters="sRGB">
<feFlood flood-opacity="0" result="BackgroundImageFix"/>
<feColorMatrix in="SourceAlpha" type="matrix" values="0 0 0 0 0 0 0 0 0 0 0 0 0 0 0 0 0 0 127 0" result="hardAlpha"/>
<feOffset dy="4"/>
<feGaussianBlur stdDeviation="2"/>
<feComposite in2="hardAlpha" operator="out"/>
<feColorMatrix type="matrix" values="0 0 0 0 0 0 0 0 0 0 0 0 0 0 0 0 0 0 0.25 0"/>
<feBlend mode="normal" in2="BackgroundImageFix" result="effect1_dropShadow_5152_387"/>
<feBlend mode="normal" in="SourceGraphic" in2="effect1_dropShadow_5152_387" result="shape"/>
</filter>
</defs>
</svg>
