<svg width="28" height="28" viewBox="0 0 28 28" fill="none" xmlns="http://www.w3.org/2000/svg">
<circle cx="14" cy="14" r="14" fill="#80D200"/>
<path d="M21.9603 7.63672C21.9603 8.74232 21.0414 10.5164 18.7697 10.5164H11.9801C11.0357 10.5421 10.1934 10.9278 9.58081 11.5449C8.96821 12.1877 8.58534 13.0362 8.58534 13.9875C8.58534 14.9388 8.96821 15.813 9.58081 16.4301C10.1424 16.9958 10.8826 17.3814 11.6994 17.4586C11.9801 17.4843 12.2354 17.4843 12.3375 17.4843H16.2683C16.2683 18.5642 15.4005 20.2354 13.3074 20.364C13.3074 20.364 12.0822 20.364 12.0057 20.364C12.0057 20.364 11.2399 20.3126 10.9081 20.2354C9.60633 20.004 8.45771 19.3612 7.56435 18.4613C6.44126 17.3043 5.72656 15.7359 5.72656 13.9875C5.72656 12.2648 6.41573 10.6707 7.53882 9.53938C8.68744 8.38236 10.2189 7.66243 11.9546 7.63672H11.9801H21.9603Z" fill="white"/>
<path d="M19.5309 12.5215H13.8718C11.6286 12.5215 10.7109 14.2639 10.7109 15.3498H16.37C18.6132 15.3498 19.5309 13.6073 19.5309 12.5215Z" fill="white"/>
</svg>
