<svg width="40" height="40" viewBox="0 0 40 40" fill="none" xmlns="http://www.w3.org/2000/svg">
<path d="M0 20C0 8.95431 8.95431 0 20 0C31.0457 0 40 8.95431 40 20C40 31.0457 31.0457 40 20 40C8.95431 40 0 31.0457 0 20Z" fill="#FC980E"/>
<path d="M17.375 25.25H17C14 25.25 12.5 24.5 12.5 20.75V17C12.5 14 14 12.5 17 12.5H23C26 12.5 27.5 14 27.5 17V20.75C27.5 23.75 26 25.25 23 25.25H22.625C22.3925 25.25 22.1675 25.3625 22.025 25.55L20.9 27.05C20.405 27.71 19.595 27.71 19.1 27.05L17.975 25.55C17.855 25.385 17.5775 25.25 17.375 25.25Z" stroke="white" stroke-width="1.5" stroke-miterlimit="10" stroke-linecap="round" stroke-linejoin="round"/>
<path d="M22.9978 19.25H23.0046" stroke="white" stroke-width="2" stroke-linecap="round" stroke-linejoin="round"/>
<path d="M19.9959 19.25H20.0026" stroke="white" stroke-width="2" stroke-linecap="round" stroke-linejoin="round"/>
<path d="M16.9959 19.25H17.0026" stroke="white" stroke-width="2" stroke-linecap="round" stroke-linejoin="round"/>
</svg>
