<svg width="19" height="20" viewBox="0 0 19 20" fill="none" xmlns="http://www.w3.org/2000/svg">
<path fill-rule="evenodd" clip-rule="evenodd" d="M13.8465 15.8101C13.5106 17.9093 11.9255 19.2579 9.60333 19.2579C7.28118 19.2579 5.69607 17.9093 5.36013 15.8101H3.51165C2.08352 15.8101 0.925781 14.6524 0.925781 13.2242C0.925781 12.6374 1.12538 12.068 1.4918 11.6096C2.31624 10.5782 2.70771 9.67707 2.70771 8.91445V7.19055C2.70771 3.3822 5.79499 0.294922 9.60333 0.294922C13.4117 0.294922 16.499 3.3822 16.499 7.19055V8.91445C16.499 9.67708 16.8904 10.5783 17.7149 11.6097C18.6066 12.7252 18.4251 14.3524 17.3096 15.2441C16.8512 15.6105 16.2819 15.8101 15.695 15.8101H13.8465ZM2.6443 13.3319C2.6443 13.808 3.03022 14.1939 3.50627 14.1939L15.6897 14.1939C15.8853 14.1939 16.0751 14.1273 16.2278 14.0052C16.5997 13.708 16.6602 13.1656 16.3629 12.7937C15.3146 11.4822 14.7697 10.2278 14.7697 9.02214V7.29824C14.7697 4.44198 12.4542 2.12652 9.59795 2.12652C6.74169 2.12652 4.42623 4.44198 4.42623 7.29824V9.02214C4.42623 10.2278 3.88131 11.4822 2.83297 12.7937C2.71083 12.9465 2.6443 13.1363 2.6443 13.3319ZM9.63449 18.0726C8.28744 18.0726 7.42723 17.4546 7.148 16.3487H12.121C11.8417 17.4546 10.9815 18.0726 9.63449 18.0726Z" fill="#444F56"/>
</svg>
