<svg width="40" height="40" viewBox="0 0 40 40" fill="none" xmlns="http://www.w3.org/2000/svg">
<path d="M0 20C0 8.95431 8.95431 0 20 0C31.0457 0 40 8.95431 40 20C40 31.0457 31.0457 40 20 40C8.95431 40 0 31.0457 0 20Z" fill="#F9FAFB"/>
<path d="M28.334 14.9993V17.016C28.334 18.3327 27.5007 19.166 26.184 19.166H23.334V13.341C23.334 12.416 24.0923 11.666 25.0173 11.666C25.9257 11.6743 26.759 12.041 27.359 12.641C27.959 13.2493 28.334 14.0827 28.334 14.9993Z" stroke="#FB923C" stroke-width="1.5" stroke-miterlimit="10" stroke-linecap="round" stroke-linejoin="round"/>
<path d="M11.666 15.8327V27.4993C11.666 28.191 12.4493 28.5827 12.9993 28.166L14.4243 27.0993C14.7577 26.8493 15.2243 26.8827 15.5243 27.1827L16.9077 28.5744C17.2327 28.8994 17.766 28.8994 18.091 28.5744L19.491 27.1744C19.7827 26.8827 20.2493 26.8493 20.5743 27.0993L21.9993 28.166C22.5493 28.5744 23.3327 28.1827 23.3327 27.4993V13.3327C23.3327 12.416 24.0827 11.666 24.9993 11.666H15.8327H14.9993C12.4993 11.666 11.666 13.1577 11.666 14.9993V15.8327Z" stroke="#FB923C" stroke-width="1.5" stroke-miterlimit="10" stroke-linecap="round" stroke-linejoin="round"/>
<path d="M17.5 20.8418H20" stroke="#FB923C" stroke-width="1.5" stroke-linecap="round" stroke-linejoin="round"/>
<path d="M17.5 17.5078H20" stroke="#FB923C" stroke-width="1.5" stroke-linecap="round" stroke-linejoin="round"/>
<path d="M14.9961 20.834H15.0036" stroke="#FB923C" stroke-width="2" stroke-linecap="round" stroke-linejoin="round"/>
<path d="M14.9961 17.5H15.0036" stroke="#FB923C" stroke-width="2" stroke-linecap="round" stroke-linejoin="round"/>
</svg>
