<svg width="19" height="20" viewBox="0 0 19 20" fill="none" xmlns="http://www.w3.org/2000/svg">
<path fill-rule="evenodd" clip-rule="evenodd" d="M9.50065 9.87963C6.8415 9.87963 4.68584 7.72396 4.68584 5.06482C4.68584 2.40567 6.8415 0.25 9.50065 0.25C12.1598 0.25 14.3155 2.40567 14.3155 5.06482C14.3155 7.72396 12.1598 9.87963 9.50065 9.87963ZM17.2925 19.5093C17.7707 19.5093 18.1583 19.0781 18.1583 18.5463C18.3507 14.0525 15.4648 11.8056 9.50065 11.8056C3.53649 11.8056 0.650611 14.0525 0.843003 18.5463C0.843003 19.0781 1.23062 19.5093 1.70877 19.5093H17.2925ZM2.75991 17.5833C2.75991 15.0154 5.00682 13.7315 9.50065 13.7315C13.9945 13.7315 16.2414 15.0154 16.2414 17.5833H2.75991ZM12.3895 5.06482C12.3895 6.6603 11.0961 7.9537 9.50065 7.9537C7.90516 7.9537 6.61176 6.6603 6.61176 5.06482C6.61176 3.46933 7.90516 2.17593 9.50065 2.17593C11.0961 2.17593 12.3895 3.46933 12.3895 5.06482Z" fill="#444F56"/>
</svg>
