<svg width="19" height="21" viewBox="0 0 19 21" fill="none" xmlns="http://www.w3.org/2000/svg">
<path fill-rule="evenodd" clip-rule="evenodd" d="M9.50065 10.8796C6.8415 10.8796 4.68584 8.72396 4.68584 6.06482C4.68584 3.40567 6.8415 1.25 9.50065 1.25C12.1598 1.25 14.3155 3.40567 14.3155 6.06482C14.3155 8.72396 12.1598 10.8796 9.50065 10.8796ZM17.2925 20.5093C17.7707 20.5093 18.1583 20.0781 18.1583 19.5463C18.3507 15.0525 15.4648 12.8056 9.50065 12.8056C3.53649 12.8056 0.650611 15.0525 0.843003 19.5463C0.843003 20.0781 1.23062 20.5093 1.70877 20.5093H17.2925ZM2.75991 18.5833C2.75991 16.0154 5.00682 14.7315 9.50065 14.7315C13.9945 14.7315 16.2414 16.0154 16.2414 18.5833H2.75991ZM12.3895 6.06482C12.3895 7.6603 11.0961 8.9537 9.50065 8.9537C7.90516 8.9537 6.61176 7.6603 6.61176 6.06482C6.61176 4.46933 7.90516 3.17593 9.50065 3.17593C11.0961 3.17593 12.3895 4.46933 12.3895 6.06482Z" fill="#444F56"/>
<path d="M18.1583 19.5463L17.6588 19.5249L17.6583 19.5356V19.5463H18.1583ZM0.843003 19.5463H1.343V19.5356L1.34255 19.5249L0.843003 19.5463ZM2.75991 18.5833H2.25991V19.0833H2.75991V18.5833ZM16.2414 18.5833V19.0833H16.7414V18.5833H16.2414ZM4.18584 6.06482C4.18584 9.00011 6.56536 11.3796 9.50065 11.3796V10.3796C7.11765 10.3796 5.18584 8.44782 5.18584 6.06482H4.18584ZM9.50065 0.75C6.56536 0.75 4.18584 3.12952 4.18584 6.06482H5.18584C5.18584 3.68181 7.11765 1.75 9.50065 1.75V0.75ZM14.8155 6.06482C14.8155 3.12952 12.4359 0.75 9.50065 0.75V1.75C11.8837 1.75 13.8155 3.68181 13.8155 6.06482H14.8155ZM9.50065 11.3796C12.4359 11.3796 14.8155 9.00011 14.8155 6.06482H13.8155C13.8155 8.44782 11.8837 10.3796 9.50065 10.3796V11.3796ZM17.6583 19.5463C17.6583 19.8534 17.4458 20.0093 17.2925 20.0093V21.0093C18.0955 21.0093 18.6583 20.3029 18.6583 19.5463H17.6583ZM9.50065 13.3056C12.4362 13.3056 14.516 13.8614 15.831 14.8853C17.1166 15.8862 17.7498 17.3978 17.6588 19.5249L18.6578 19.5677C18.7592 17.201 18.0457 15.3422 16.4454 14.0962C14.8744 12.8731 12.5293 12.3056 9.50065 12.3056V13.3056ZM1.34255 19.5249C1.25148 17.3978 1.88475 15.8862 3.17029 14.8853C4.48526 13.8614 6.56509 13.3056 9.50065 13.3056V12.3056C6.47205 12.3056 4.12687 12.8731 2.55595 14.0962C0.955607 15.3422 0.242136 17.201 0.343461 19.5677L1.34255 19.5249ZM1.70877 20.0093C1.55547 20.0093 1.343 19.8534 1.343 19.5463H0.343003C0.343003 20.3029 0.905765 21.0093 1.70877 21.0093V20.0093ZM17.2925 20.0093H1.70877V21.0093H17.2925V20.0093ZM9.50065 14.2315C7.22251 14.2315 5.43299 14.5541 4.19703 15.2603C2.91929 15.9905 2.25991 17.1182 2.25991 18.5833H3.25991C3.25991 17.4805 3.72399 16.6824 4.69317 16.1286C5.70412 15.5509 7.28497 15.2315 9.50065 15.2315V14.2315ZM16.7414 18.5833C16.7414 17.1182 16.082 15.9905 14.8043 15.2603C13.5683 14.5541 11.7788 14.2315 9.50065 14.2315V15.2315C11.7163 15.2315 13.2972 15.5509 14.3081 16.1286C15.2773 16.6824 15.7414 17.4805 15.7414 18.5833H16.7414ZM2.75991 19.0833H16.2414V18.0833H2.75991V19.0833ZM9.50065 9.4537C11.3723 9.4537 12.8895 7.93645 12.8895 6.06482H11.8895C11.8895 7.38416 10.82 8.4537 9.50065 8.4537V9.4537ZM6.11176 6.06482C6.11176 7.93645 7.62902 9.4537 9.50065 9.4537V8.4537C8.1813 8.4537 7.11176 7.38416 7.11176 6.06482H6.11176ZM9.50065 2.67593C7.62902 2.67593 6.11176 4.19318 6.11176 6.06482H7.11176C7.11176 4.74547 8.1813 3.67593 9.50065 3.67593V2.67593ZM12.8895 6.06482C12.8895 4.19318 11.3723 2.67593 9.50065 2.67593V3.67593C10.82 3.67593 11.8895 4.74547 11.8895 6.06482H12.8895Z" fill="#444F56"/>
</svg>
