<svg width="28" height="28" viewBox="0 0 28 28" fill="none" xmlns="http://www.w3.org/2000/svg">
<path d="M4.66602 8.16602V6.99935C4.66602 6.38051 4.91185 5.78702 5.34943 5.34943C5.78702 4.91185 6.38051 4.66602 6.99935 4.66602H9.33268" stroke="white" stroke-width="2" stroke-linecap="round" stroke-linejoin="round"/>
<path d="M4.66602 19.832V20.9987C4.66602 21.6175 4.91185 22.211 5.34943 22.6486C5.78702 23.0862 6.38051 23.332 6.99935 23.332H9.33268" stroke="white" stroke-width="2" stroke-linecap="round" stroke-linejoin="round"/>
<path d="M18.666 4.66602H20.9993C21.6182 4.66602 22.2117 4.91185 22.6493 5.34943C23.0869 5.78702 23.3327 6.38051 23.3327 6.99935V8.16602" stroke="white" stroke-width="2" stroke-linecap="round" stroke-linejoin="round"/>
<path d="M18.666 23.332H20.9993C21.6182 23.332 22.2117 23.0862 22.6493 22.6486C23.0869 22.211 23.3327 21.6175 23.3327 20.9987V19.832" stroke="white" stroke-width="2" stroke-linecap="round" stroke-linejoin="round"/>
<path d="M5.83203 14H22.1654" stroke="white" stroke-width="2" stroke-linecap="round" stroke-linejoin="round"/>
</svg>
