<svg width="40" height="40" viewBox="0 0 40 40" fill="none" xmlns="http://www.w3.org/2000/svg">
<path d="M0 20C0 8.95431 8.95431 0 20 0C31.0457 0 40 8.95431 40 20C40 31.0457 31.0457 40 20 40C8.95431 40 0 31.0457 0 20Z" fill="#808EB9"/>
<path d="M20 22.5C21.3807 22.5 22.5 21.3807 22.5 20C22.5 18.6193 21.3807 17.5 20 17.5C18.6193 17.5 17.5 18.6193 17.5 20C17.5 21.3807 18.6193 22.5 20 22.5Z" stroke="white" stroke-width="1.5" stroke-miterlimit="10" stroke-linecap="round" stroke-linejoin="round"/>
<path d="M11.668 20.7339V19.2672C11.668 18.4005 12.3763 17.6839 13.2513 17.6839C14.7596 17.6839 15.3763 16.6172 14.618 15.3089C14.1846 14.5589 14.443 13.5839 15.2013 13.1505L16.643 12.3255C17.3013 11.9339 18.1513 12.1672 18.543 12.8255L18.6346 12.9839C19.3846 14.2922 20.618 14.2922 21.3763 12.9839L21.468 12.8255C21.8596 12.1672 22.7096 11.9339 23.368 12.3255L24.8096 13.1505C25.568 13.5839 25.8263 14.5589 25.393 15.3089C24.6346 16.6172 25.2513 17.6839 26.7596 17.6839C27.6263 17.6839 28.343 18.3922 28.343 19.2672V20.7339C28.343 21.6005 27.6346 22.3172 26.7596 22.3172C25.2513 22.3172 24.6346 23.3838 25.393 24.6922C25.8263 25.4505 25.568 26.4172 24.8096 26.8505L23.368 27.6755C22.7096 28.0672 21.8596 27.8339 21.468 27.1755L21.3763 27.0172C20.6263 25.7089 19.393 25.7089 18.6346 27.0172L18.543 27.1755C18.1513 27.8339 17.3013 28.0672 16.643 27.6755L15.2013 26.8505C14.443 26.4172 14.1846 25.4422 14.618 24.6922C15.3763 23.3838 14.7596 22.3172 13.2513 22.3172C12.3763 22.3172 11.668 21.6005 11.668 20.7339Z" stroke="white" stroke-width="1.5" stroke-miterlimit="10" stroke-linecap="round" stroke-linejoin="round"/>
</svg>
