<svg width="41" height="40" viewBox="0 0 41 40" fill="none" xmlns="http://www.w3.org/2000/svg">
<path d="M0.833984 20C0.833984 8.95431 9.78829 0 20.834 0C31.8797 0 40.834 8.95431 40.834 20C40.834 31.0457 31.8797 40 20.834 40C9.78829 40 0.833984 31.0457 0.833984 20Z" fill="#9757D7"/>
<g clip-path="url(#clip0_5136_1185)">
<path d="M27.4231 16.3747C27.5541 16.2437 27.7797 16.2304 27.9125 16.3751C28.6897 17.2229 29.1199 17.8506 29.2615 18.5458C29.343 18.9457 29.3546 19.3529 29.2958 19.7488C29.1367 20.819 28.2697 21.6861 26.5355 23.4203L24.4203 25.5355C22.6861 27.2697 21.8191 28.1367 20.7488 28.2958C20.3529 28.3546 19.9457 28.343 19.5458 28.2615C18.8507 28.1199 18.223 27.6898 17.3754 26.9127C17.2305 26.7798 17.2439 26.5539 17.375 26.4228C18.1051 25.6927 18.0704 24.4742 17.2975 23.7012C16.5245 22.9283 15.306 22.8936 14.5759 23.6237C14.4448 23.7548 14.2189 23.7682 14.086 23.6233C13.3089 22.7757 12.8788 22.148 12.7372 21.4529C12.6557 21.053 12.6441 20.6458 12.7029 20.2499C12.862 19.1796 13.729 18.3126 15.4632 16.5784L17.5785 14.4632C19.3126 12.729 20.1797 11.862 21.2499 11.7029C21.6458 11.6441 22.053 11.6557 22.4529 11.7372C23.1481 11.8788 23.7758 12.309 24.6236 13.0862C24.7683 13.219 24.755 13.4446 24.624 13.5756C23.8939 14.3057 23.9286 15.5242 24.7015 16.2972C25.4745 17.0701 26.693 17.1048 27.4231 16.3747Z" stroke="white" stroke-width="1.5" stroke-linejoin="round"/>
<path d="M26.8333 22.4993L18.5 14.166" stroke="white" stroke-width="1.5" stroke-linecap="round" stroke-linejoin="round"/>
</g>
<defs>
<clipPath id="clip0_5136_1185">
<rect width="20" height="20" fill="white" transform="translate(11 10)"/>
</clipPath>
</defs>
</svg>
